<svg xmlns="http://www.w3.org/2000/svg" viewBox="0 0 119 108.9"><defs><style>.cls-1{fill:#fff;}.cls-2,.cls-3{fill:none;}.cls-2{stroke:#434351;stroke-linecap:round;stroke-linejoin:round;stroke-width:2px;fill-rule:evenodd;}</style></defs><title>icon-hammer</title><g id="Layer_2" data-name="Layer 2"><g id="hammer"><path class="cls-1" d="M82.4,35.4s-16-8.8-28.3-11a17.8,17.8,0,0,0-13.5,3.5l-2.1,5.2,9.7-1.5L78.3,45.3l-2.2,5.2,7.8,3.2,8.5-20.3-7.8-3.2ZM59.7,38.8a193,193,0,0,0-9.6,19C45.8,68.1,34.4,84.2,34.4,84.2l14.8,6.2L66.8,42.6Z"/><path class="cls-2" d="M83.3,36.1S68,26,56,22.9a17.8,17.8,0,0,0-13.8,2.4l-2.5,5,9.7-.7,28.9,16-2.6,5,7.5,3.8L93.4,34.9l-7.6-3.8ZM60.4,37.7A193,193,0,0,0,49.2,55.9c-5.1,9.9-17.8,25.1-17.8,25.1l14.3,7.4L67.2,42Z"/><rect class="cls-3" width="119" height="108.92"/></g></g></svg>
