<svg xmlns="http://www.w3.org/2000/svg" viewBox="0 0 119 108.9"><defs><style>.cls-1{fill:#fff;}.cls-1,.cls-2{fill-rule:evenodd;}.cls-2,.cls-3{fill:none;}.cls-2{stroke:#434351;stroke-linecap:round;stroke-linejoin:round;stroke-width:2px;}</style></defs><title>icon-mod</title><g id="Layer_2" data-name="Layer 2"><g id="Mdnzr"><polygon class="cls-1" points="13.9 65.5 15 82.8 60.9 79.6 60.3 70.9 59.7 62.2 57.6 30 42.5 31.1 43.7 48.8 28.6 49.9 29.6 64.4 13.9 65.5"/><path class="cls-1" d="M107.8,76.2C106,48.9,86.1,28,63.3,29.6H61.8l3.3,49.5Z"/><polygon class="cls-2" points="16.9 61.6 16.9 78 60.2 78 60.2 69.8 60.2 61.6 60.2 31.1 46 31.1 46 47.9 31.8 47.9 31.8 61.6 16.9 61.6"/><path class="cls-2" d="M104.7,78c0-25.9-17.5-46.9-39-46.9H64.2V78Z"/><rect class="cls-3" width="119" height="108.92"/></g></g></svg>
