<?xml version="1.0" encoding="utf-8"?>
<!-- Generator: Adobe Illustrator 20.1.0, SVG Export Plug-In . SVG Version: 6.00 Build 0)  -->
<svg version="1.1" id="Layer_1" xmlns="http://www.w3.org/2000/svg" xmlns:xlink="http://www.w3.org/1999/xlink" x="0px" y="0px"
	 viewBox="0 0 119 108.9" style="enable-background:new 0 0 119 108.9;" xml:space="preserve">
<style type="text/css">
	.st0{fill:none;}
	.st1{fill:#FFFFFF;}
	.st2{fill:none;stroke:#424251;stroke-width:2;stroke-linecap:round;stroke-linejoin:round;stroke-miterlimit:10;}
</style>
<title>icon-wpml</title>
<g id="Layer_2">
	<g id="ml">
		<rect class="st0" width="119" height="108.9"/>
	</g>
</g>
<g>
	<g>
		<path class="st1" d="M58.9,24.8c-16,1-28.4,13.3-27.5,27.6c0.1,2.2,0.6,4.2,1.2,6.2c0.1-0.1,0.3-0.2,0.5-0.3c0-3.3,2.5-6,5.8-6.2
			c1.4-0.1,2.8,0.3,3.9,1.1c0.3-0.1,0.7-0.2,1-0.4c0.6-2.6,2.8-4.7,5.6-4.9c2-0.1,3.9,0.8,5.1,2.2c0,0,0,0,0.1,0
			c0.7-2.4,2.9-4.2,5.5-4.4c2.7-0.2,5,1.4,6,3.7c0,0,0,0,0.1,0c1-1.6,2.8-2.7,4.8-2.8c2.8-0.2,5.3,1.6,6.2,4.1
			c0.4,0.1,0.7,0.2,1.1,0.3c1-0.9,2.3-1.4,3.7-1.5c3.2-0.2,6,2.2,6.5,5.4c0.2,0.1,0.5,0.2,0.7,0.4c0.4-2,0.6-4.1,0.5-6.3
			C88.6,34.6,74.9,23.8,58.9,24.8z"/>
		<polygon class="st1" points="52.9,78.2 53.4,86.9 63.1,92.3 75.8,86.7 75.3,77.9 65.2,75.3 		"/>
	</g>
	<g>
		<path class="st2" d="M60.3,22.4c-16.1,0-29.1,11.6-29.1,25.9c0,2.2,0.3,4.3,0.9,6.3c0.2-0.1,0.3-0.2,0.5-0.3
			c0.2-3.3,2.8-5.8,6.1-5.8c1.5,0,2.8,0.5,3.8,1.3c0.3-0.1,0.7-0.2,1-0.3c0.7-2.6,3.1-4.5,5.9-4.5c2,0,3.8,1,4.9,2.5c0,0,0,0,0.1,0
			c0.9-2.4,3.1-4.1,5.8-4.1s4.9,1.7,5.8,4c0,0,0,0,0.1,0c1.1-1.5,2.9-2.5,4.9-2.5c2.8,0,5.2,1.9,5.9,4.5c0.4,0.1,0.7,0.2,1.1,0.3
			c1-0.8,2.4-1.3,3.8-1.3c3.3,0,5.9,2.5,6.1,5.7c0.2,0.1,0.5,0.3,0.7,0.4c0.6-2,0.9-4.1,0.9-6.3C89.4,34,76.3,22.4,60.3,22.4z"/>
		<polygon class="st2" points="73.5,85.2 60.4,90 60.4,80.1 73.5,76.4 		"/>
		<polygon class="st2" points="60.4,90 51.1,84.1 51.1,75.3 60.4,80.2 		"/>
		<polygon class="st2" points="73.5,76.4 63.6,73.1 51.1,75.3 60.4,80.2 		"/>
		<line class="st2" x1="32" y1="54.6" x2="61.4" y2="76.7"/>
		<line class="st2" x1="88.5" y1="54.6" x2="61.4" y2="76.7"/>
		<line class="st2" x1="54.3" y1="47.4" x2="61.4" y2="76.7"/>
		<line class="st2" x1="65.9" y1="47.4" x2="61.4" y2="76.7"/>
		<line class="st2" x1="77.9" y1="49.7" x2="61.4" y2="76.7"/>
		<line class="st2" x1="42.5" y1="49.8" x2="61.4" y2="76.7"/>
	</g>
</g>
</svg>
