<svg xmlns="http://www.w3.org/2000/svg" viewBox="0 0 119 108.9"><defs><style>.cls-1{fill:#fff;}.cls-1,.cls-2{fill-rule:evenodd;}.cls-2,.cls-3{fill:none;}.cls-2{stroke:#434351;stroke-linecap:round;stroke-linejoin:round;stroke-width:2px;}</style></defs><title>icon-os</title><g id="Layer_2" data-name="Layer 2"><g id="os"><path class="cls-1" d="M52.2,68.8,42,89.1S20.2,80.2,23.6,52.4c2.9-23.7,27.1-31.9,38.9-30.5s34.1,15.1,31,40S67.1,92.3,67.1,92.3L61.5,69.7s8.2-2.3,9.1-10A12.6,12.6,0,0,0,60.1,45.5c-5.8-.7-12.9,3-13.7,9.7C45.3,65,52.2,68.8,52.2,68.8Z"/><path class="cls-2" d="M56.2,68.2,48.7,89.4S26.1,83.2,26.1,55.4c0-23.7,22.8-34.7,34.6-34.7S96.1,31.6,96.1,56.5,73.8,89.6,73.8,89.6L65.5,67.9s7.8-3.2,7.8-11a12.5,12.5,0,0,0-12-12.8c-5.8,0-12.3,4.5-12.3,11.2C48.9,65.2,56.2,68.2,56.2,68.2Z"/><rect class="cls-3" width="119" height="108.92"/></g></g></svg>
