<svg xmlns="http://www.w3.org/2000/svg" viewBox="0 0 119 108.9"><defs><style>.cls-1{fill:#fff;}.cls-1,.cls-2{fill-rule:evenodd;}.cls-2,.cls-3{fill:none;}.cls-2{stroke:#434351;stroke-linecap:round;stroke-linejoin:round;stroke-width:2px;}</style></defs><title>icon-woo</title><g id="Layer_2" data-name="Layer 2"><g id="woo"><path class="cls-1" d="M23.4,29.1A9.7,9.7,0,0,0,13.9,39l.5,29.1a9.6,9.6,0,0,0,9.8,9.5l37.6-.8,16.3,8.8-4.1-9,27.6-.6a9.7,9.7,0,0,0,9.5-9.9L110.7,37a9.6,9.6,0,0,0-9.8-9.5Z"/><path class="cls-2" d="M22,24.9a9.9,9.9,0,0,0-10.1,9.5L10.9,64a9.8,9.8,0,0,0,9.5,10.2l38.4,1.3,16.3,9.9-3.7-9.4,28.4,1a10,10,0,0,0,10.3-9.6L111,37.5a9.9,9.9,0,0,0-9.6-10.2Z"/><path class="cls-2" d="M18.1,32.7s6,32.4,6.3,32.8S38.1,41.8,38.1,41.8,41,54,41.9,55.7l5,9.9s1.4-12.9,2.4-16.5S52.9,35.2,55,32.1"/><path class="cls-2" d="M71.4,39.7c-5.1-1.6-9.8,5.5-10.8,8.2s-2.2,11.9,2.6,14.4,10.3-1.6,12.9-9.2S75,40.8,71.4,39.7Z"/><path class="cls-2" d="M98.4,40.8c4.4,1.7,5,9.6,2.1,15.2S94,64.9,89.6,63.2,83,55,86.4,47.6C89,41.8,94.5,39.2,98.4,40.8Z"/><rect class="cls-3" width="119" height="108.92"/></g></g></svg>
