<?xml version="1.0" encoding="utf-8"?>
<!-- Generator: Adobe Illustrator 20.1.0, SVG Export Plug-In . SVG Version: 6.00 Build 0)  -->
<svg version="1.1" id="Layer_1" xmlns="http://www.w3.org/2000/svg" xmlns:xlink="http://www.w3.org/1999/xlink" x="0px" y="0px"
	 viewBox="0 0 119 108.9" style="enable-background:new 0 0 119 108.9;" xml:space="preserve">
<style type="text/css">
	.st0{fill:none;}
	.st1{fill:#FFFFFF;}
	.st2{fill:#F3F3F7;stroke:#545467;}
	.st3{fill:none;stroke:#545467;stroke-width:2;}
</style>
<title>icon-bolt</title>
<rect class="st0" width="119" height="108.9"/>
<g transform="matrix(1.36094, 0.06964, -0.06964, 1.36094, -762.67737, -62.34528)">
	<path class="st1" d="M581.5,25.9v41.4c0,0,4.1,10.1,10.9,14.6c6.9,4.4,13.6,4.3,13.6,4.3s6.7,0.1,13.6-4.3
		c6.9-4.4,10.9-14.6,10.9-14.6V25.9c0,0-6.7,5.7-12.8,5.7c-6.2,0-11.7-5.7-11.7-5.7s-5.6,5.7-11.7,5.7S581.5,25.9,581.5,25.9z"/>
	<path class="st2" d="M596.1,57.6l7.3,9.3L607,62l10.9-14.4l-15.2,14.6L596.1,57.6z"/>
</g>
<path class="st3" d="M26,16v55.1c0,0,5.4,13.5,14.6,19.3c9.2,5.9,18.1,5.8,18.1,5.8s8.9,0.1,18.1-5.8c9.2-5.8,14.6-19.3,14.6-19.3
	V16c0,0-8.9,7.7-17,7.7c-8.2,0-15.6-7.7-15.6-7.7s-7.5,7.7-15.6,7.7S26,16,26,16z"/>
</svg>
