<?xml version="1.0" encoding="utf-8"?>
<!-- Generator: Adobe Illustrator 20.1.0, SVG Export Plug-In . SVG Version: 6.00 Build 0)  -->
<svg version="1.1" id="Layer_1" xmlns="http://www.w3.org/2000/svg" xmlns:xlink="http://www.w3.org/1999/xlink" x="0px" y="0px"
	 viewBox="0 0 119 108.9" style="enable-background:new 0 0 119 108.9;" xml:space="preserve">
<style type="text/css">
	.st0{fill:#FFFFFF;stroke:#FFFFFF;stroke-width:2;stroke-linecap:round;stroke-linejoin:round;}
	.st1{fill:#FFFFFF;}
	.st2{fill:none;stroke:#434351;stroke-width:2;stroke-linecap:round;stroke-linejoin:round;}
	.st3{fill:#434351;}
	.st4{fill:#FFFFFF;stroke:#434351;stroke-width:2;stroke-miterlimit:10;}
	.st5{fill:none;stroke:#434351;stroke-width:2;stroke-miterlimit:10;}
</style>
<title>icon-fast</title>
<g>
	<g id="Layer_2_2_">
		<g id="Mobile_1_">
			<path class="st0" d="M111.6,52.1l-5.3,15.1l-2.9,0.3c0.2-0.7,0.3-1.4,0.3-2.2c0.4-5.9-2.8-10.2-7.1-10c-4.3,0.3-8.1,5.3-8.5,11.1
				c-0.1,0.7-0.1,1.4,0,2.1l-30.8,2.3c0.2-0.7,0.3-1.4,0.3-2.2c0.4-5.9-2.8-10.2-7.1-10c-4.3,0.3-8.2,5.4-8.6,11.2
				c0,0.3,0,0.6,0,0.9l-5.7-2.6c0,0,3.2-15.1,9.9-20.7c4.6-3.5,9.6-6.4,15-8.4c0,0-3.8,19.4,4.2,18.5c8-0.9,8.3-14.2,8.3-14.2
				l5.2,3.8L111.6,52.1z"/>
			<path class="st0" d="M56.3,69.7c-0.3,4.8-3.6,8.9-7.3,9.1c-3.7,0.3-6.4-3.4-6.1-8.2c0.3-4.7,3.6-8.9,7.3-9.1
				C53.9,61.2,56.6,64.8,56.3,69.7z M53.9,69.8c0.2-3.2-1.5-5.6-4-5.4c-2.4,0.2-4.5,2.8-4.8,6c-0.2,3.2,1.5,5.6,4,5.4
				C51.6,75.7,53.7,72.9,53.9,69.8z"/>
			<path class="st1" d="M51.7,70c0.1-1.5-0.7-2.7-1.9-2.6c-1.3,0.3-2.2,1.5-2.3,2.8c-0.1,1.5,0.7,2.7,1.9,2.6
				C50.7,72.6,51.6,71.4,51.7,70z"/>
			<path class="st0" d="M101.3,66.4c-0.3,4.8-3.6,8.9-7.3,9.1c-3.7,0.3-6.4-3.4-6.1-8.2c0.3-4.7,3.6-8.9,7.3-9.1
				C98.9,57.9,101.6,61.6,101.3,66.4z M98.9,66.6c0.2-3.2-1.5-5.6-4-5.4c-2.4,0.2-4.5,2.8-4.8,6c-0.2,3.2,1.5,5.6,4,5.4
				C96.6,72.4,98.7,69.7,98.9,66.6L98.9,66.6z"/>
			<path class="st1" d="M96.6,66.7c0.1-1.5-0.7-2.7-1.9-2.6c-1.3,0.3-2.2,1.5-2.3,2.8c-0.1,1.5,0.7,2.7,1.9,2.6
				C95.6,69.3,96.5,68.1,96.6,66.7z"/>
			<path class="st2" d="M108.1,51.5l-3.2,18.8h-2.8c0.2-0.6,0.3-1.3,0.4-2c0.6-5.5-2.3-9.9-6.5-9.9s-8.1,4.4-8.7,9.9
				c-0.1,0.7-0.1,1.3-0.1,2H57.5c0.2-0.6,0.3-1.3,0.4-2c0.6-5.5-2.3-9.9-6.5-9.9s-8.1,4.4-8.8,9.9c0,0.3-0.1,0.6-0.1,0.9l-5.3-2.8
				c0,0,3.6-14.1,10.4-18.8c4.6-3.1,9.5-5.4,14.7-7c0,0-4.5,18.1,3.3,17.8c7.8-0.3,8.6-12.9,8.6-12.9l4.9,4L108.1,51.5z"/>
			<path class="st3" d="M56.7,70.8c-0.5,4.8-3.9,8.7-7.6,8.7c-3.7,0-6.2-3.9-5.7-8.7s3.9-8.7,7.6-8.7S57.2,66.1,56.7,70.8z
				 M54.3,70.8c0.3-3.2-1.3-5.7-3.7-5.7c-2.4,0-4.6,2.6-4.9,5.7c-0.3,3.1,1.3,5.7,3.7,5.7C51.8,76.5,54,74,54.3,70.8z"/>
			<path class="st3" d="M52.1,70.8c0.2-1.5-0.6-2.8-1.8-2.8s-2.2,1.2-2.4,2.8c-0.2,1.5,0.6,2.8,1.8,2.8S51.9,72.4,52.1,70.8z"/>
			<path class="st3" d="M101.6,70.4c-0.5,4.8-3.9,8.7-7.6,8.7c-3.7,0-6.2-3.9-5.7-8.7s3.9-8.7,7.6-8.7
				C99.7,61.7,102.2,65.7,101.6,70.4z M99.3,70.4c0.3-3.2-1.3-5.7-3.7-5.7s-4.6,2.6-4.9,5.7c-0.3,3.1,1.3,5.7,3.7,5.7
				C96.8,76.1,99,73.6,99.3,70.4z"/>
			<path class="st3" d="M97,70.4c0.2-1.5-0.6-2.8-1.8-2.8s-2.2,1.2-2.4,2.8c-0.2,1.5,0.6,2.8,1.8,2.8S96.9,71.9,97,70.4z"/>
			<path class="st2" d="M44.9,47"/>
			<path class="st2" d="M34.6,65.9"/>
			<path class="st2" d="M39.7,46.5"/>
			<path class="st2" d="M29.4,65.4"/>
			<path class="st2" d="M20.7,65.4"/>
		</g>
	</g>
	<ellipse class="st3" cx="65.6" cy="52.3" rx="4.3" ry="5.8"/>
	<g>
		<path class="st4" d="M68.2,43.7c0-2.9,2.2-5.2,4.9-5.2c0.3,0,0.5,0,0.8,0.1c-0.6-1.7-1.9-3-3.5-3.4c-2.8-0.7-5.8,1.6-6.5,5.2
			c-0.8,3.5,0.9,7,3.7,7.7c0.9,0.2,1.7,0.1,2.6-0.2C69,46.9,68.2,45.4,68.2,43.7z"/>
		<path class="st5" d="M74.1,42.9c0.3-1.5,0.2-3-0.3-4.3c-0.3,0-0.5-0.1-0.8-0.1c-2.7,0-4.9,2.3-4.9,5.2c0,1.7,0.8,3.2,2,4.2
			C72,47.2,73.6,45.3,74.1,42.9z"/>
	</g>
	<path class="st3" d="M74.2,42.1c0.3-1.5,0.2-2.2-0.3-3.4c-0.3,0-0.5-0.1-0.8-0.1c-2.7,0-3.9,0.8-4.9,3.5c-0.3,1,0.6,2.3,2,2.4
		C72,44.5,73.7,44.5,74.2,42.1z"/>
</g>
<ellipse class="st3" cx="79.9" cy="60.6" rx="6.3" ry="6"/>
<g>
	<path class="st1" d="M78.4,58.9h-1.5L76.6,60c0.1,0,0.1,0,0.2,0c0.2,0,0.5,0.1,0.7,0.2c0.4,0.2,0.5,0.6,0.5,0.9
		c0,1-0.8,1.7-1.8,1.7c-0.4,0-0.8-0.1-0.9-0.2l0.2-0.4c0.2,0.1,0.5,0.2,0.8,0.2c0.6,0,1.1-0.5,1.1-1.1c0-0.5-0.2-0.8-1-0.8
		c-0.2,0-0.3,0-0.5,0l0.6-2h1.9L78.4,58.9z"/>
	<path class="st1" d="M78.5,62.7l0.1-0.4l0.6-0.5c1.1-1,1.8-1.6,1.8-2.3c0-0.3-0.2-0.7-0.7-0.7c-0.4,0-0.7,0.2-0.9,0.3l-0.1-0.4
		c0.3-0.2,0.7-0.4,1.1-0.4c0.8,0,1.1,0.5,1.1,1c0,0.9-0.8,1.7-1.8,2.5l-0.4,0.3v0h1.8l-0.1,0.5H78.5z"/>
	<path class="st1" d="M84.8,58.9h-1.5L83,60c0.1,0,0.1,0,0.2,0c0.2,0,0.5,0.1,0.7,0.2c0.4,0.2,0.5,0.6,0.5,0.9c0,1-0.8,1.7-1.8,1.7
		c-0.4,0-0.8-0.1-0.9-0.2l0.2-0.4c0.2,0.1,0.5,0.2,0.8,0.2c0.6,0,1.1-0.5,1.1-1.1c0-0.5-0.2-0.8-1-0.8c-0.2,0-0.3,0-0.5,0l0.6-2h1.9
		L84.8,58.9z"/>
</g>
<path class="st0" d="M25.4,51.5c0.1-0.5,0.1-1,0-1.5c-0.5-3.3-4.5-5.4-8.9-4.7s-7.6,3.9-7.1,7.2c0,0.1,0,0.2,0.1,0.3
	c-2.2,1-3.6,2.9-3.3,4.8c0.4,2.4,3.4,4,6.7,3.5c1.8-0.3,3.4-1.2,4.3-2.3c1.1,1.9,4,3,7.2,2.5c3.8-0.6,6.6-3.2,6.2-5.9
	C30.2,53.3,28.1,51.8,25.4,51.5z"/>
<path class="st2" d="M27.5,53.5c0.2-0.5,0.3-1,0.3-1.5c0-3.3-3.6-6-8.1-6s-8.1,2.7-8.1,6c0,0.1,0,0.2,0,0.3c-2.3,0.6-4,2.3-4,4.2
	c0,2.5,2.7,4.5,6.1,4.5c1.9,0,3.5-0.6,4.6-1.6c0.8,2.1,3.5,3.6,6.8,3.6c3.9,0,7-2.2,7-4.9C32.1,56,30.2,54.2,27.5,53.5z"/>
<line class="st2" x1="62.1" y1="35.1" x2="44.9" y2="35.1"/>
<line class="st2" x1="51" y1="40.6" x2="25.5" y2="40.6"/>
<line class="st2" x1="103" y1="82.4" x2="29.4" y2="82.4"/>
<ellipse class="st2" cx="30.8" cy="67.3" rx="3.2" ry="2.2"/>
</svg>
