<?xml version="1.0" encoding="utf-8"?>
<svg viewBox="0 0 119 108.9" xmlns="http://www.w3.org/2000/svg">
  <defs>
    <style>.cls-1{fill:#fff;}.cls-1,.cls-2{fill-rule:evenodd;}.cls-2,.cls-3{fill:none;}.cls-2{stroke:#434351;stroke-linecap:round;stroke-linejoin:round;stroke-width:2px;}</style>
  </defs>
  <title>icon-mod</title>
  <g id="Layer_2" data-name="Layer 2">
    <g id="Mdnzr">
      <polygon class="cls-1" points="13.9 68.5 15 85.8 60.9 82.6 60.3 73.9 59.7 65.2 57.6 33 42.5 34.1 43.7 51.8 28.6 52.9 29.6 67.4 13.9 68.5"/>
      <path class="cls-1" d="M 107.8 79.2 C 106 51.9 86.1 31 63.3 32.6 L 61.8 32.6 L 65.1 82.1 Z"/>
      <polygon class="cls-2" points="16.9 64.6 16.9 81 60.2 81 60.2 72.8 60.2 64.6 60.2 34.1 46 34.1 46 50.9 31.8 50.9 31.8 64.6 16.9 64.6"/>
      <path class="cls-2" d="M 104.7 81 C 104.7 55.1 87.2 34.1 65.7 34.1 L 64.2 34.1 L 64.2 81 Z"/>
      <rect class="cls-3" width="119" height="108.92"/>
    </g>
  </g>
</svg>
