<svg xmlns="http://www.w3.org/2000/svg" viewBox="0 0 119 108.9"><defs><style>.cls-1{fill:#fff;}.cls-2,.cls-3{fill:none;}.cls-2{stroke:#434351;stroke-linecap:round;stroke-linejoin:round;stroke-width:2px;fill-rule:evenodd;}</style></defs><title>icon-fa</title><g id="Layer_2" data-name="Layer 2"><g id="Flag"><g id="Layer_1-2" data-name="Layer 1"><path class="cls-1" d="M78.7,28.8c8.6-.5,10.9-3.7,20.2-7.4l2.2,40.7c-6,5-9.5,8.4-20.1,8.9-12.2.7-13.8-7.1-25.7-6.4s-13.9,5.5-24.8,9.2L28.3,33.1c7.7-3.6,13.2-8.6,24.8-9.2S64.2,29.6,78.7,28.8ZM26.2,24.4c.1,2.2-2.8,4.6-2.8,4.6a10.9,10.9,0,0,0,0,1.3l3.4,62.6-4.7.3-3.4-63S18,29,17.8,29s-2.4-1.8-2.6-4.5.5-3.8,2.3-4.7a7.8,7.8,0,0,1,5.8-.3C25.2,20.2,26.1,22.4,26.2,24.4Z"/><path class="cls-2" d="M78.8,31.8c8.7,0,11-3.1,20.5-6.3V66.2C93,71,89.4,74.1,78.8,74.1c-12.2,0-13.4-7.8-25.3-7.8S39.3,71,28.2,74.1V33.4c7.9-3.1,13.6-7.8,25.3-7.8S64.3,31.8,78.8,31.8ZM26.7,24.5c0,2.2-3,4.4-3,4.4a10.9,10.9,0,0,0-.1,1.3V92.9H18.8V29.8s-.5-1.2-.8-1.2-2.3-1.9-2.4-4.7.7-3.8,2.6-4.6a7.8,7.8,0,0,1,5.8,0C25.9,20.3,26.7,22.5,26.7,24.5Z"/></g><rect class="cls-3" width="119" height="108.92"/></g></g></svg>
