<svg xmlns="http://www.w3.org/2000/svg" viewBox="0 0 119 108.9"><defs><style>.cls-1{fill:#fff;}.cls-1,.cls-2{fill-rule:evenodd;}.cls-2,.cls-3,.cls-4{fill:none;}.cls-2,.cls-3{stroke:#434351;stroke-linecap:round;stroke-linejoin:round;stroke-width:2px;}</style></defs><title>icon-mobile</title><g id="Layer_2" data-name="Layer 2"><g id="Mobile"><path class="cls-1" d="M54.4,81.8c0,2-.6,5.2-2.3,5.8l-2.4.7c-.4.1-1.5.2-1.1.3l-2.4-.2c-1.2.6-1.9,1.2-2.1,2.4-.6,3.6,9.1,2,11.4,1.5,4.6-1,2.6-7.1,2.9-10.3l5.9.4L64,87.4c.1-.2.3.3.4.5l1,2.3a16.8,16.8,0,0,0,4.3,3.6l3.7,1.9v.2h2.2c-.3-.2.7-.3.7-.3s1.2-1,1.2-1.4l-.2-2.2c-.1-1.2-3-1.9-4-2.1s-.6-.4-.7-.4l-2.1-.7c-.7-.2-1.3-1.6-1.9-1.2a11.5,11.5,0,0,1,.5-4.1v-.8l2.4.2a10.3,10.3,0,0,0,10.9-9.6l.8-10.9-1.3.4s4-1.6,4.3-3c.8-3.5-2-6.1-2-6.1l-.4.2,2.1-28.8a10.2,10.2,0,0,0-9.5-10.9L56.1,12.9a10.3,10.3,0,0,0-10.9,9.6L43.5,46.3a9.6,9.6,0,0,0-6.2-1.2c-5.7.8-9.5,6.5-8.6,12.7a12,12,0,0,0,2.1,5.3l2.1,2a.4.4,0,0,0-.3.3c-.2.8-.5,3.4,1.6,4.4a8.8,8.8,0,0,0,5.1.2l-.3-.2.5-.2-.5.2.3.2,2.4,1.8a10.2,10.2,0,0,0,9.5,9.7Z"/><path class="cls-2" d="M54.9,80.5c.3,1.8.2,6-1.8,6.8l-2.3.8c-.4.1-1.4.3-1.1.4H47.3c-1.1.7-1.8,1.3-1.9,2.5-.4,3.6,9.2,1.4,11.4.7,5.3-1.6.9-9.5,2.5-11.9"/><path class="cls-2" d="M64.9,80.1v6.2c.1-.2.3.3.4.5L66.6,89A16.9,16.9,0,0,0,71,92.3l3.8,1.6v.2H77c-.3-.1.7-.4.7-.4s1.2-1,1.1-1.4l-.4-2.2c-.2-1.2-3.1-1.7-4.1-1.8s-.7-.4-.7-.4l-2.2-.5c-.7-.2-1.4-1.5-2-1.1a11.4,11.4,0,0,1,.2-4.1V80.7l.3-.4"/><ellipse class="cls-3" cx="56.1" cy="34.2" rx="1.6" ry="1.6"/><ellipse class="cls-3" cx="67.3" cy="34.2" rx="1.6" ry="1.6"/><path class="cls-2" d="M51.3,41.7h.1l-.3-.4c-.2.3-.7-.4-.7-.7v-.5l-.7.9Zm8.6,5.9c5.8,1.4,11.9-3.2,12.5-8.3l-1.4.9c-.7.3-2.9,1-3.2,1.6L62,43.2v.2H57v-.2l-4-.9-1.7-.5.8,1.1a10.7,10.7,0,0,1,7.1,4.7Zm12.6-8.5v.2h0Z"/><path class="cls-2" d="M82.7,51.5s3,2.4,2.4,5.9-24.2,6.9-25.7,7.2-2.9.9-4.3.8-1.6-4.5-.4-3.9-1.6-2.1,0-2.3,0-1.8.3-2,3.7-.4,3.7-.4l1.7,1.6s5.6.1,9-.3a41.6,41.6,0,0,0,8.9-2.7"/><path class="cls-2" d="M82.3,51.7V22.9A10.2,10.2,0,0,0,72.1,12.7H51.7A10.2,10.2,0,0,0,41.5,22.9V46.8l1.3.8A10,10,0,0,1,49.2,43c5.6-1.2,11.2,2.8,12.5,8.9a12.1,12.1,0,0,1-.2,5.8l-.3.6h.4"/><path class="cls-2" d="M56,66.2,48.9,77.1l-7.3-4.8a10.2,10.2,0,0,0,10.1,9H72.1A10.2,10.2,0,0,0,82.3,71.1V60.2l-1.3.5"/><path class="cls-2" d="M61.1,58.3l.3-.6a12.1,12.1,0,0,0,.2-5.8c-1.2-6.2-6.8-10.2-12.5-8.9a10,10,0,0,0-6.3,4.5A9.8,9.8,0,0,0,35.3,46c-5.6,1.2-9,7.1-7.7,13.2a12,12,0,0,0,2.5,5.1l2.3,1.9.6.2c1.1.6,3-3.7,6.2-3.1.3,0,.2.9.3,1.2s.6,0,1.1.5a.8.8,0,0,1,0,.7c.1,0,1.5,0,1.7.3s-.8,2.6-1.9,3.5a5.6,5.6,0,0,1-1.6.8l10.1,6.6,7.7-11.8H55.1c-1.4-.1-1.6-4.5-.4-3.9s-1.6-2.1,0-2.3,0-1.8.3-2,3.7-.4,3.7-.4l1.7,1.6Z"/><path class="cls-2" d="M32,66.5c-.2.8-.3,3.4,1.9,4.3s6.3-.2,7.4-1.2,2.7-2.1,1.9-3.5-1.8-.4-1.7-.3a.7.7,0,0,0,0-.7c-.5-.5-1-.2-1.1-.5s0-1.2-.3-1.2C37,62.9,35,67.1,34,66.5S32.2,65.7,32,66.5Z"/><rect class="cls-4" width="119" height="108.92"/></g></g></svg>
