<?xml version="1.0" encoding="utf-8"?>
<!-- Generator: Adobe Illustrator 20.1.0, SVG Export Plug-In . SVG Version: 6.00 Build 0)  -->
<svg version="1.1" id="Layer_1" xmlns="http://www.w3.org/2000/svg" xmlns:xlink="http://www.w3.org/1999/xlink" x="0px" y="0px"
	 viewBox="0 0 119 108.9" style="enable-background:new 0 0 119 108.9;" xml:space="preserve">
<style type="text/css">
	.st0{fill-rule:evenodd;clip-rule:evenodd;fill:#FFFFFF;}

		.st1{fill-rule:evenodd;clip-rule:evenodd;fill:none;stroke:#424251;stroke-width:2;stroke-linecap:round;stroke-linejoin:round;stroke-miterlimit:10;}
	.st2{fill:none;stroke:#424251;stroke-width:2;stroke-linecap:round;stroke-linejoin:round;stroke-miterlimit:10;}
</style>
<title>icon-fast</title>
<g>
	<g>
		<path class="st0" d="M57.4,23.2c-14.6,0.9-25.8,12.1-25,25.2c0.1,2,0.5,3.9,1.1,5.6c0.1-0.1,0.3-0.2,0.4-0.3c0-3,2.3-5.5,5.3-5.6
			c1.3-0.1,2.6,0.3,3.6,1c0.3-0.1,0.6-0.2,0.9-0.3c0.5-2.4,2.6-4.3,5.1-4.4c1.8-0.1,3.5,0.7,4.6,2c0,0,0,0,0,0c0.6-2.2,2.6-3.9,5-4
			c2.4-0.1,4.6,1.3,5.5,3.4c0,0,0,0,0.1,0c0.9-1.4,2.5-2.4,4.3-2.5c2.6-0.2,4.8,1.4,5.6,3.7c0.3,0.1,0.7,0.1,1,0.2
			c0.9-0.8,2.1-1.3,3.4-1.4c3-0.2,5.5,2,5.9,4.9c0.2,0.1,0.4,0.2,0.6,0.3c0.4-1.9,0.6-3.8,0.4-5.7C84.5,32.1,72.1,22.3,57.4,23.2z"
			/>
		<polygon class="st0" points="52,71.8 52.5,79.8 61.3,84.7 72.9,79.6 72.4,71.5 63.2,69.1 		"/>
	</g>
	<g>
		<path class="st1" d="M60.1,24.2c-14.6,0-26.5,10.6-26.5,23.6c0,2,0.3,3.9,0.8,5.7c0.1-0.1,0.3-0.2,0.4-0.3c0.1-3,2.6-5.3,5.6-5.3
			c1.3,0,2.5,0.5,3.5,1.2c0.3-0.1,0.6-0.2,0.9-0.3c0.6-2.4,2.8-4.1,5.4-4.1c1.8,0,3.5,0.9,4.5,2.3c0,0,0,0,0,0
			c0.8-2.2,2.8-3.7,5.3-3.7c2.4,0,4.5,1.5,5.3,3.7c0,0,0,0,0.1,0c1-1.4,2.6-2.3,4.5-2.3c2.6,0,4.7,1.7,5.4,4.1
			c0.3,0.1,0.7,0.2,1,0.3c0.9-0.7,2.1-1.2,3.4-1.2c3,0,5.4,2.3,5.6,5.2c0.2,0.1,0.4,0.2,0.6,0.4c0.5-1.8,0.8-3.7,0.8-5.7
			C86.6,34.7,74.8,24.2,60.1,24.2z"/>
		<polygon class="st1" points="72.2,81.4 60.3,85.8 60.3,76.7 72.2,73.3 		"/>
		<polygon class="st1" points="60.3,85.8 51.8,80.4 51.8,72.4 60.3,76.8 		"/>
		<polygon class="st1" points="72.2,73.3 63.2,70.4 51.8,72.4 60.3,76.8 		"/>
		<line class="st2" x1="34.4" y1="53.5" x2="61.2" y2="73.6"/>
		<line class="st2" x1="85.9" y1="53.5" x2="61.2" y2="73.6"/>
		<line class="st2" x1="54.7" y1="47" x2="61.2" y2="73.6"/>
		<line class="st2" x1="65.3" y1="47" x2="61.2" y2="73.6"/>
		<line class="st2" x1="76.2" y1="49.1" x2="61.2" y2="73.6"/>
		<line class="st2" x1="43.9" y1="49.1" x2="61.2" y2="73.6"/>
	</g>
</g>
</svg>
