<?xml version="1.0" encoding="utf-8"?>
<!-- Generator: Adobe Illustrator 20.1.0, SVG Export Plug-In . SVG Version: 6.00 Build 0)  -->
<svg version="1.1" id="Layer_1" xmlns="http://www.w3.org/2000/svg" xmlns:xlink="http://www.w3.org/1999/xlink" x="0px" y="0px"
	 viewBox="0 0 119 108.9" style="enable-background:new 0 0 119 108.9;" xml:space="preserve">
<style type="text/css">
	.st0{fill:#FFFFFF;}
	.st1{fill:none;stroke:#434351;stroke-width:2;stroke-linecap:round;stroke-linejoin:round;}
	.st2{fill:none;}
</style>
<title>icon-wpml</title>
<g id="Layer_2">
	<g id="ml">
		<path class="st0" d="M79.9,72.3l13.8-5.9l-12.2-8.1l0.5-6.8l-11.4-0.8l14.7-22L60.4,27L45.7,49l11.4,0.8l-0.5,6.8l12.2,8.1
			L55,70.6c0,0-1.5,7.2,1.9,10.8s13.6,3.1,13.6,3.1l16.8,1.1c-2-0.3-4-1.1-5.5-2.5C78.4,79.4,79.9,72.3,79.9,72.3z"/>
		<path class="st1" d="M73.5,83.7c0,0-10.1,1.3-13.8-2.1S57,71,57,71l13.3-6.8l-12.9-7.3v-6.8H46l12.8-23"/>
		<ellipse class="st1" cx="68.7" cy="33.9" rx="2.5" ry="2.6"/>
		<path class="st1" d="M25.8,50.1c0,0-2.8,8.6-2.8,13.6s2.3,13.6,2.3,13.6"/>
		<path class="st1" d="M33.1,53.5c0,0-2.3,6.6-2.3,10.4s1.9,10.4,1.9,10.4"/>
		<path class="st1" d="M40.9,56.5c0,0-1.8,4.7-1.8,7.4c0.2,2.5,0.7,5,1.5,7.4"/>
		<path class="st1" d="M83.7,27.1l-12.8,23h11.5v6.8l12.8,7.2L81.9,71c0,0-0.9,7.2,2.8,10.6s13.8,2.1,13.8,2.1"/>
		<ellipse class="st1" cx="93.6" cy="33.9" rx="2.5" ry="2.6"/>
		<rect class="st2" width="119" height="108.9"/>
	</g>
</g>
</svg>
